<svg preserveAspectRatio="none" width="100%" height="100%" overflow="visible" style="display: block;" viewBox="0 0 16 3" fill="none" xmlns="http://www.w3.org/2000/svg">
<g id="Group">
<path id="Vector" d="M7.6666 2.06641C7.96108 2.06641 8.19981 1.82768 8.19981 1.5332C8.19981 1.23872 7.96108 1 7.6666 1C7.37212 1 7.1334 1.23872 7.1334 1.5332C7.1334 1.82768 7.37212 2.06641 7.6666 2.06641Z" fill="var(--fill-0, #171717)" stroke="var(--stroke-0, #171717)" stroke-width="1.6" stroke-linecap="round" stroke-linejoin="round"/>
<path id="Vector_2" d="M1.5332 2.06641C1.82768 2.06641 2.06641 1.82768 2.06641 1.5332C2.06641 1.23872 1.82768 1 1.5332 1C1.23872 1 1 1.23872 1 1.5332C1 1.82768 1.23872 2.06641 1.5332 2.06641Z" fill="var(--fill-0, #171717)" stroke="var(--stroke-0, #171717)" stroke-width="1.6" stroke-linecap="round" stroke-linejoin="round"/>
<path id="Vector_3" d="M13.7999 2.06641C14.0944 2.06641 14.3331 1.82768 14.3331 1.5332C14.3331 1.23872 14.0944 1 13.7999 1C13.5054 1 13.2667 1.23872 13.2667 1.5332C13.2667 1.82768 13.5054 2.06641 13.7999 2.06641Z" fill="var(--fill-0, #171717)" stroke="var(--stroke-0, #171717)" stroke-width="1.6" stroke-linecap="round" stroke-linejoin="round"/>
</g>
</svg>
