<svg width="20" height="20" viewBox="0 0 20 20" fill="none" xmlns="http://www.w3.org/2000/svg">
<path d="M13.7077 5.29648C12.491 3.28983 10.2921 1.94428 7.77439 1.94428C3.94107 1.94428 0.833312 5.05204 0.833312 8.88646C0.833312 10.1487 1.17553 11.3298 1.76553 12.3498C2.17664 13.122 1.71553 14.9464 0.833312 15.8275C2.02997 15.892 3.60774 15.352 4.31107 14.8953C4.77885 15.1653 5.52217 15.5242 6.49328 15.7075C6.61772 15.7309 6.75106 15.7264 6.87772 15.7431" stroke="#525252" stroke-width="1.5972" stroke-linecap="round" stroke-linejoin="round"/>
<path d="M14.1665 8.0511C16.9276 8.0511 19.1665 10.29 19.1665 13.0511C19.1665 13.9611 18.9198 14.8111 18.4954 15.5466C18.1987 16.1022 18.532 17.4166 19.1665 18.0522C18.3043 18.0988 17.1687 17.7088 16.6609 17.3811C16.3243 17.5755 15.7887 17.8333 15.0887 17.9666C14.7898 18.0233 14.4809 18.0533 14.1654 18.0533C11.4032 18.0533 9.16541 15.8144 9.16541 13.0533C9.16541 10.2911 11.4043 8.05333 14.1654 8.05333L14.1665 8.0511Z" stroke="#525252" stroke-width="1.5972" stroke-linecap="round" stroke-linejoin="round"/>
</svg>
